<?xml version="1.0" standalone="no"?>
<!DOCTYPE svg PUBLIC "-//W3C//DTD SVG 20010904//EN"
 "http://www.w3.org/TR/2001/REC-SVG-20010904/DTD/svg10.dtd">
<svg version="1.0" xmlns="http://www.w3.org/2000/svg"
 width="696.000000pt" height="621.000000pt" viewBox="0 0 696.000000 621.000000"
 preserveAspectRatio="xMidYMid meet">

<g transform="translate(0.000000,621.000000) scale(0.100000,-0.100000)"
fill="#000000" stroke="none">
<path d="M536 6044 c-62 -15 -162 -67 -207 -107 -47 -42 -107 -126 -140 -194
-41 -88 -63 -216 -63 -368 0 -117 25 -330 43 -370 5 -11 13 -38 16 -60 8 -46
78 -259 128 -390 78 -200 267 -577 401 -798 104 -172 99 -161 76 -165 -11 -2
-45 8 -76 23 -31 15 -58 24 -61 21 -9 -9 44 -75 117 -146 102 -101 259 -212
373 -265 22 -10 41 -23 43 -29 5 -13 -78 -272 -106 -331 -20 -43 -58 -173 -65
-225 -4 -30 -11 -60 -16 -66 -5 -6 -12 -65 -15 -130 -6 -108 -1 -164 22 -292
6 -31 1 -39 -83 -125 -116 -118 -174 -209 -264 -412 -9 -21 -33 -124 -50 -215
-17 -89 -5 -341 20 -435 93 -349 305 -612 617 -768 182 -91 407 -131 609 -108
169 19 301 64 412 139 l58 39 375 6 c398 5 597 20 847 62 400 68 673 151 969
294 302 147 517 302 748 539 261 269 439 597 421 779 -6 64 -81 340 -129 471
-28 77 -88 204 -125 262 l-23 35 7 -35 c39 -202 55 -441 36 -559 -13 -82 -43
-191 -52 -191 -4 0 -9 28 -12 63 -7 85 -56 233 -118 353 -28 54 -54 102 -58
107 -4 4 -1 -28 7 -70 18 -103 10 -291 -17 -397 -12 -43 -36 -112 -56 -155
l-35 -76 0 76 c0 140 -51 336 -114 441 l-26 43 0 -106 c0 -220 -85 -423 -240
-574 l-51 -50 18 45 c27 71 22 277 -10 395 l-25 90 -1 -51 c-2 -109 -39 -249
-96 -364 -34 -68 -107 -171 -146 -205 -21 -19 -20 -17 5 26 26 45 79 189 72
196 -1 2 -16 -16 -31 -39 -50 -77 -205 -220 -294 -272 -45 -26 -85 -46 -87
-43 -3 3 -1 14 5 25 27 50 33 157 16 284 -9 67 -19 153 -22 189 l-5 66 33 7
c86 17 267 165 348 284 96 142 140 265 149 414 l7 106 73 -33 c40 -19 93 -48
117 -64 25 -17 45 -28 45 -25 0 4 -16 37 -37 76 -76 146 -190 221 -307 204
-74 -11 -82 -27 -89 -162 -4 -66 -11 -137 -17 -159 -52 -193 -168 -344 -322
-419 -241 -119 -526 -40 -563 156 l-7 36 51 11 c73 16 115 35 187 86 76 54
163 159 200 239 23 50 26 68 22 134 -4 96 -31 153 -103 221 -96 90 -215 133
-375 133 -172 1 -299 -42 -395 -133 -75 -71 -108 -142 -109 -234 -1 -88 27
-149 114 -252 93 -111 202 -180 313 -198 32 -5 37 -10 37 -32 0 -41 -38 -110
-78 -143 -84 -69 -254 -99 -379 -67 -161 42 -301 157 -373 308 -54 115 -71
185 -75 314 -2 61 -4 114 -4 118 -1 4 -22 17 -48 29 -54 24 -129 21 -184 -8
-54 -27 -133 -116 -167 -187 -18 -36 -32 -68 -32 -71 0 -2 24 11 53 31 45 31
167 93 182 93 3 0 5 -38 5 -83 0 -187 98 -406 250 -559 63 -62 191 -150 246
-168 l36 -12 -7 -82 c-3 -44 -11 -103 -16 -131 -15 -78 -12 -224 5 -280 9 -27
16 -54 16 -58 0 -11 -103 47 -146 81 -29 23 -34 35 -49 121 -63 351 -250 605
-550 751 -136 66 -225 90 -367 97 -99 5 -118 9 -119 22 0 10 -2 12 -6 4 -2 -7
-9 -13 -14 -13 -5 0 -3 11 3 25 8 18 8 35 0 61 -8 26 -8 34 1 31 7 -2 11 -12
9 -22 -2 -10 1 -14 7 -10 6 3 9 16 6 28 -4 13 -1 34 5 47 10 24 10 23 7 -7 -2
-18 0 -33 5 -33 4 0 8 5 8 11 0 23 82 219 115 273 19 32 32 62 29 67 -3 5 0
17 6 26 9 15 10 14 4 -7 -7 -28 -2 -24 44 36 20 27 26 41 17 41 -8 0 -11 -5
-8 -10 3 -6 1 -7 -5 -3 -5 3 -13 0 -15 -6 -3 -8 -6 -6 -6 5 -1 9 2 17 7 18 42
4 90 33 171 105 2 2 0 4 -5 4 -6 0 -20 -9 -32 -20 -20 -19 -26 -18 -23 3 4 28
-77 -31 -148 -109 -101 -110 -177 -254 -229 -431 -30 -102 -31 -123 -5 -102
10 9 13 8 13 -5 0 -16 -24 -29 -76 -42 l-25 -6 6 63 c8 75 32 228 41 255 13
43 -109 -188 -143 -270 -28 -66 -43 -91 -62 -99 -14 -6 -39 -21 -56 -33 -67
-47 -69 -45 -62 58 14 213 144 557 286 753 l35 50 -59 -49 c-33 -27 -77 -65
-97 -85 -21 -19 -40 -32 -43 -29 -3 3 13 63 36 134 54 166 189 433 297 587 98
140 108 169 37 110 -54 -46 -72 -61 -102 -80 -25 -16 -22 -11 19 47 26 36 86
132 134 213 103 176 199 303 288 383 36 32 63 61 60 66 -3 4 1 5 9 2 8 -3 18
0 22 6 5 8 -25 9 -117 4 -67 -5 -133 -7 -145 -6 -57 7 -111 6 -145 -2 -24 -5
-38 -5 -38 1 0 6 28 13 62 17 76 8 199 41 253 69 22 11 90 54 150 95 61 41
142 90 180 109 50 25 60 32 35 27 -19 -4 -48 -7 -65 -6 -23 1 -26 -1 -15 -8
12 -8 10 -10 -8 -10 -14 0 -21 4 -16 11 4 7 -4 10 -22 8 -43 -3 -102 11 -108
26 -3 8 -29 16 -60 20 -31 4 -54 11 -51 15 2 4 35 10 73 14 38 4 82 10 97 14
l28 8 -54 39 c-30 22 -60 46 -67 55 -10 13 -11 12 -5 -5 6 -18 5 -18 -10 -6
-9 7 -14 18 -10 24 3 6 1 7 -5 3 -14 -8 -79 57 -139 139 -23 32 -43 56 -43 53
0 -6 75 -172 91 -200 13 -24 4 -22 -23 5 -13 12 -31 21 -40 19 -10 -2 -41 21
-77 58 -34 34 -61 59 -61 55 0 -3 18 -31 41 -61 30 -40 35 -53 20 -45 -12 7
-28 23 -37 36 -9 14 -20 23 -24 20 -4 -3 -14 3 -21 13 -13 15 -12 16 4 3 19
-15 24 -2 6 16 -14 14 -42 5 -32 -10 28 -45 -177 158 -209 207 -4 6 -9 8 -12
5 -3 -2 9 -22 25 -44 42 -56 239 -331 278 -388 36 -54 33 -61 -8 -17 -15 17
-34 28 -42 25 -8 -3 -40 17 -74 45 -33 28 -64 54 -70 58 -5 4 -31 24 -57 45
-26 21 -50 39 -55 40 -4 1 -7 5 -6 9 2 5 -2 8 -7 8 -6 0 -29 28 -51 63 -54 81
-42 45 42 -132 68 -141 84 -186 53 -146 -8 11 -20 19 -25 17 -6 -1 -8 2 -5 7
3 5 -1 12 -10 15 -10 4 -13 2 -8 -6 10 -17 -9 -4 -116 78 -52 40 -138 113
-190 163 -52 50 -98 91 -103 91 -5 0 -1 -7 7 -16 26 -26 18 -29 -9 -4 -24 23
-35 47 -15 35 6 -3 7 1 4 10 -4 9 -9 14 -11 11 -3 -3 -14 5 -25 17 l-19 22 7
-25 c6 -24 6 -24 -13 -7 -28 25 -36 21 -17 -8 9 -14 14 -32 10 -40 -3 -10 -2
-13 5 -9 6 3 17 -3 25 -15 9 -12 20 -19 25 -16 5 3 6 0 3 -8 -3 -8 3 -21 14
-28 21 -15 47 -59 35 -59 -4 0 -27 21 -51 46 -23 26 -46 44 -49 41 -3 -4 0
-15 8 -24 13 -16 12 -17 -4 -4 -9 7 -16 21 -15 30 2 9 -3 15 -9 14 -7 -2 -13
1 -13 7 0 5 -6 7 -13 4 -7 -2 -25 6 -40 20 -31 29 -35 18 -9 -21 9 -15 11 -24
5 -20 -20 13 -15 -6 15 -54 34 -54 67 -120 67 -135 0 -6 7 -20 15 -30 8 -11
-5 -3 -30 18 -25 20 -44 43 -44 51 1 9 -4 13 -12 10 -8 -3 -14 -1 -14 3 0 5
-20 32 -45 59 l-44 50 14 -45 c7 -25 21 -63 31 -85 9 -22 16 -53 15 -68 -1
-16 3 -26 8 -23 5 4 13 1 17 -5 4 -7 3 -9 -4 -5 -6 3 -12 -1 -14 -10 -6 -33
-258 226 -258 265 0 6 -4 11 -9 11 -5 0 -3 -21 5 -47 8 -25 12 -48 10 -51 -4
-4 -13 23 -42 133 -17 63 -16 -48 2 -156 9 -57 19 -124 22 -149 4 -41 3 -43
-13 -30 -9 7 -31 34 -48 59 -17 25 -37 52 -44 59 -7 7 -13 18 -13 24 0 6 -2 9
-5 7 -8 -9 43 -144 79 -208 20 -35 35 -66 32 -68 -5 -5 -74 86 -100 132 l-17
30 6 -30 c4 -16 12 -42 19 -56 9 -17 10 -32 4 -43 -13 -24 -31 -3 -52 62 -18
52 -35 61 -37 19 l0 -22 -9 21 c-18 46 -26 31 -11 -21 12 -41 18 -50 24 -37 5
12 6 9 2 -8 -5 -27 2 -54 46 -174 16 -43 28 -80 26 -83 -8 -7 -66 137 -110
272 -73 230 -92 340 -92 545 l0 175 31 65 c67 138 173 202 335 202 111 0 193
-21 359 -92 216 -92 984 -476 1203 -601 38 -21 73 -39 79 -39 5 0 22 9 38 20
53 37 215 109 305 135 202 58 435 73 543 36 28 -10 52 -16 52 -14 0 2 -21 17
-47 33 -53 34 -53 34 19 19 61 -13 151 -56 195 -93 l31 -26 65 44 c60 40 116
63 202 81 27 6 26 4 -13 -20 -52 -32 -51 -39 3 -20 62 22 272 19 397 -5 171
-33 278 -73 453 -171 l40 -22 80 45 c262 148 946 490 1179 590 176 75 264 98
376 98 104 0 169 -18 233 -66 103 -76 141 -175 139 -369 -2 -236 -77 -552
-192 -808 -31 -69 -34 -57 -4 21 41 109 55 162 48 174 -4 7 -3 8 4 4 7 -4 12
-6 12 -4 0 2 9 34 19 71 11 37 15 65 10 62 -5 -4 -9 -14 -10 -23 0 -9 -5 -1
-11 18 l-10 35 -14 -25 c-7 -14 -13 -31 -14 -38 0 -16 -61 -124 -66 -119 -3 2
1 17 7 33 6 16 17 54 24 84 11 44 11 52 1 37 -32 -43 -120 -137 -124 -132 -3
2 7 22 21 42 34 49 107 206 107 229 0 10 -27 -24 -60 -74 -34 -51 -65 -92 -69
-92 -4 0 -2 31 5 69 25 131 34 235 25 281 -9 44 -9 44 -10 10 -2 -47 -35 -143
-45 -133 -5 4 -7 -2 -4 -13 3 -12 1 -28 -4 -35 -6 -9 -7 5 -3 41 l6 55 -34
-50 c-43 -62 -183 -199 -196 -191 -5 3 -11 0 -14 -6 -3 -7 -3 3 -2 22 2 20 14
63 28 97 14 34 28 77 32 95 l7 33 -32 -38 c-51 -60 -97 -107 -105 -107 -4 0
-2 6 4 14 8 9 8 16 2 20 -12 8 -5 29 25 76 39 61 59 119 44 133 -10 10 -12 7
-7 -12 4 -17 3 -21 -5 -13 -8 8 -16 4 -30 -14 -11 -13 -24 -24 -30 -24 -7 0
-1 11 12 25 13 14 19 25 13 25 -10 0 -36 -27 -82 -85 -21 -26 -23 -27 -18 -7
3 12 1 22 -4 22 -17 0 -9 16 26 57 35 42 50 72 18 37 -10 -10 -27 -26 -38 -34
-14 -11 -13 -7 6 20 63 86 39 68 -140 -102 -57 -54 -126 -112 -152 -130 -27
-17 -46 -35 -42 -41 3 -6 1 -7 -5 -3 -7 4 -29 -6 -49 -21 -21 -15 -42 -31 -48
-35 -5 -4 -31 -24 -58 -43 l-47 -35 38 77 c22 43 47 95 56 116 9 20 23 54 32
75 9 20 19 42 21 47 3 6 -17 -15 -45 -45 -95 -105 -145 -155 -139 -137 4 10 4
17 0 15 -29 -12 -165 -107 -197 -137 -21 -20 -35 -29 -31 -21 19 33 90 138
122 177 19 24 36 51 38 62 5 27 21 55 39 71 24 19 19 3 -11 -38 -18 -24 -21
-31 -8 -20 24 20 63 84 45 73 -8 -5 -11 -3 -8 6 3 8 9 13 14 13 5 -1 35 37 67
85 l59 86 -129 -131 c-147 -151 -279 -259 -165 -136 12 13 16 32 8 32 -3 0
-25 -17 -49 -37 -81 -69 -87 -73 -102 -67 -10 4 -25 -4 -41 -22 l-25 -29 27
60 c14 33 35 83 46 110 l20 50 -27 -25 c-15 -14 -35 -37 -44 -51 -28 -44 -99
-121 -115 -123 -9 -1 -22 -9 -28 -18 -7 -9 -33 -29 -58 -44 l-45 -28 50 -12
c28 -7 69 -13 93 -13 128 -3 -76 -66 -214 -66 -102 0 -110 -9 -37 -39 26 -11
100 -54 164 -97 145 -96 182 -115 278 -144 l76 -24 -45 0 c-29 -1 -40 -4 -32
-10 11 -7 10 -10 -3 -15 -9 -3 -24 -6 -33 -5 -14 0 -13 2 3 8 13 6 -10 11 -70
15 -49 3 -109 9 -133 11 l-44 5 54 -42 c132 -104 238 -236 353 -438 49 -85
142 -228 174 -264 9 -11 -17 6 -56 38 -40 32 -70 63 -66 69 4 6 1 7 -6 2 -7
-4 -22 2 -37 16 -31 29 -31 12 0 -32 194 -270 333 -537 389 -749 8 -30 18 -64
23 -75 7 -19 7 -19 -13 -5 -12 8 -51 42 -87 74 -37 32 -69 57 -71 54 -3 -2 7
-20 21 -39 29 -38 124 -223 155 -302 77 -191 107 -307 139 -530 7 -43 17 -93
24 -110 7 -18 19 -79 25 -137 7 -58 14 -112 15 -120 2 -21 70 93 100 170 49
126 60 186 60 335 1 179 -12 242 -116 548 -44 131 -79 239 -77 241 2 2 40 22
84 46 97 52 214 130 275 182 50 43 172 179 166 185 -2 2 -21 -3 -41 -11 -34
-14 -105 -22 -105 -12 0 2 28 51 61 107 321 540 529 1033 601 1418 27 148 30
389 5 499 -49 220 -203 387 -394 427 -137 29 -302 10 -448 -52 -92 -40 -768
-384 -870 -443 -16 -10 -66 -37 -110 -60 -219 -117 -389 -213 -403 -226 -25
-26 -52 -26 -85 -2 -225 168 -726 256 -964 169 l-61 -23 -59 22 c-224 84 -685
13 -938 -145 l-75 -46 -97 59 c-87 53 -360 204 -468 259 -22 11 -123 64 -225
118 -237 125 -564 287 -657 325 -143 58 -310 75 -437 44z m5344 -889 c0 -8 -4
-15 -10 -15 -5 0 -10 7 -10 15 0 8 5 15 10 15 6 0 10 -7 10 -15z m371 -168
c-10 -9 -11 -8 -5 6 3 10 9 15 12 12 3 -3 0 -11 -7 -18z m-301 3 c0 -5 -5 -10
-11 -10 -5 0 -7 5 -4 10 3 6 8 10 11 10 2 0 4 -4 4 -10z m553 -128 c5 -23 3
-31 -4 -26 -7 4 -9 -1 -5 -17 3 -13 3 -18 0 -11 -3 6 -11 9 -17 5 -7 -4 -8 0
-3 13 4 10 10 32 13 47 7 33 8 32 16 -11z m-143 -136 c0 -3 -4 -8 -10 -11 -5
-3 -10 -1 -10 4 0 6 5 11 10 11 6 0 10 -2 10 -4z m-1030 -249 c27 1 31 -1 14
-7 -21 -8 -193 5 -203 16 -3 4 30 3 74 -2 44 -4 96 -8 115 -7z m125 -7 c-22
-4 -43 -5 -47 -2 -4 4 14 8 40 9 l47 1 -40 -8z m-3616 -4 c-2 -2 -26 -6 -54
-10 -34 -4 -45 -3 -35 4 14 9 99 15 89 6z m104 -3 c-7 -2 -19 -2 -25 0 -7 3
-2 5 12 5 14 0 19 -2 13 -5z m-258 -23 c3 -5 1 -10 -4 -10 -6 0 -11 5 -11 10
0 6 2 10 4 10 3 0 8 -4 11 -10z m138 3 c-7 -2 -19 -2 -25 0 -7 3 -2 5 12 5 14
0 19 -2 13 -5z m77 -3 c-8 -5 -22 -9 -30 -9 -10 0 -8 3 5 9 27 12 43 12 25 0z
m-51 -16 c2 -2 -31 -4 -75 -3 -53 1 -71 4 -54 9 23 7 119 2 129 -6z m3364 9
c-7 -2 -19 -2 -25 0 -7 3 -2 5 12 5 14 0 19 -2 13 -5z m-1590 -1352 c117 -32
174 -82 184 -162 6 -39 4 -42 -13 -34 -203 88 -406 94 -589 15 l-45 -19 0 44
c0 73 61 127 183 160 75 20 200 19 280 -4z m-1653 -9 c0 -14 -58 -53 -64 -43
-3 5 4 11 15 14 12 3 18 10 15 15 -3 6 0 13 6 15 20 8 28 8 28 -1z m-159 -145
c-10 -9 -11 -8 -5 6 3 10 9 15 12 12 3 -3 0 -11 -7 -18z m-24 -39 c-3 -8 -6
-5 -6 6 -1 11 2 17 5 13 3 -3 4 -12 1 -19z m-17 -22 c0 -3 -4 -8 -10 -11 -5
-3 -10 -1 -10 4 0 6 5 11 10 11 6 0 10 -2 10 -4z m-17 -71 c-3 -9 -8 -14 -10
-11 -3 3 -2 9 2 15 9 16 15 13 8 -4z m1614 -138 c5 -32 1 -41 -30 -72 -32 -32
-40 -35 -88 -34 -30 0 -63 4 -74 9 -14 7 -9 8 18 4 116 -19 195 64 141 146
l-17 25 22 -21 c12 -11 24 -37 28 -57z m247 38 c-12 -30 -12 -39 0 -69 21 -49
65 -70 135 -63 36 4 50 3 41 -3 -8 -5 -40 -10 -70 -10 -55 0 -90 15 -117 50
-17 21 -16 81 3 108 22 32 25 27 8 -13z m-1934 -59 c0 -26 -6 -18 -14 19 -5
22 -4 26 4 15 5 -8 10 -24 10 -34z m17 22 c-3 -8 -6 -5 -6 6 -1 11 2 17 5 13
3 -3 4 -12 1 -19z m189 -468 c91 -23 205 -75 251 -114 43 -36 66 -116 67 -226
1 -110 -20 -173 -82 -241 -68 -76 -152 -112 -362 -154 -223 -45 -368 -132
-433 -260 -23 -46 -40 -149 -33 -197 28 -185 208 -310 362 -250 48 18 124 69
124 83 0 3 -29 9 -65 12 -89 8 -147 36 -184 87 -58 81 -50 168 23 240 58 57
125 86 294 125 228 52 303 85 395 174 92 89 146 206 149 327 3 75 8 72 58 -27
87 -171 106 -478 40 -657 -17 -45 -76 -170 -86 -181 -2 -2 -36 21 -76 51 -166
123 -215 157 -263 183 -45 24 -57 26 -130 22 -97 -6 -164 -26 -230 -69 l-50
-32 76 -7 c41 -4 107 -18 145 -31 57 -19 69 -26 66 -43 -1 -11 -45 -105 -96
-210 -108 -218 -110 -223 -97 -259 l11 -26 -63 0 c-95 0 -191 25 -296 76 -208
101 -361 324 -361 524 0 94 78 200 185 253 57 29 193 60 243 55 30 -3 36 1 56
37 50 88 69 156 69 250 1 153 -50 278 -161 397 -19 20 -31 41 -28 47 4 6 26
16 49 22 154 44 309 50 433 19z m-580 -246 c70 -77 96 -134 101 -228 7 -113 2
-122 -86 -129 -144 -12 -306 -117 -393 -255 -22 -34 -49 -67 -59 -72 -17 -10
-18 -7 -13 37 22 188 69 324 155 453 60 90 208 240 236 240 9 0 35 -21 59 -46z
m2514 -304 c-10 -126 -48 -220 -121 -292 -45 -45 -66 -59 -98 -64 -41 -7 -42
-7 -22 -25 11 -11 28 -19 38 -19 13 0 10 -4 -10 -15 -39 -20 -93 -29 -101 -16
-5 7 -15 7 -33 0 -24 -9 -97 -5 -133 8 -12 4 -11 7 5 14 17 8 16 8 -6 4 -17
-3 -31 1 -39 10 -10 12 -10 15 1 15 10 0 10 3 1 12 -9 9 -15 9 -24 0 -18 -18
-30 -14 -23 7 4 13 0 20 -15 24 -11 3 -20 10 -20 16 0 6 7 8 16 4 9 -3 20 0
25 8 8 11 9 9 7 -6 -2 -14 3 -21 20 -23 12 -2 22 -9 22 -15 0 -7 16 -13 39
-13 l39 -1 -44 23 c-24 13 -52 21 -61 18 -12 -4 -14 -3 -6 3 9 6 1 20 -25 48
-57 61 -94 154 -100 252 -4 82 -4 82 22 89 15 3 26 13 26 23 0 14 2 14 10 1 6
-10 5 -17 -5 -23 -16 -9 -20 -27 -7 -27 5 0 19 9 32 20 26 23 23 22 44 14 9
-3 16 -14 16 -24 0 -11 10 -19 26 -23 17 -3 24 -1 20 8 -6 16 13 35 36 35 10
0 18 5 18 10 0 6 -4 10 -10 10 -5 0 -10 5 -10 10 0 19 49 -21 65 -53 8 -17 21
-84 27 -149 13 -127 22 -134 31 -23 3 39 11 92 18 119 10 41 13 46 22 30 10
-18 11 -17 18 6 7 24 7 24 8 3 1 -13 6 -23 12 -23 6 0 8 8 5 18 -4 11 2 22 15
30 12 8 18 9 15 4 -3 -5 0 -15 7 -21 10 -8 19 -7 33 3 16 12 17 17 6 28 -11
11 -12 10 -6 -7 6 -16 5 -18 -6 -8 -14 13 -23 43 -12 43 3 0 13 -7 23 -16 16
-14 21 -15 48 -1 17 9 31 11 31 6 0 -5 -4 -9 -9 -9 -4 0 -6 -12 -3 -27 4 -22
7 -24 16 -11 6 8 20 18 31 21 11 4 26 21 34 39 l15 33 6 -26 c4 -13 4 -63 0
-109z m-50 85 c0 -8 -7 -15 -15 -15 -16 0 -20 12 -8 23 11 12 23 8 23 -8z
m-203 -10 c0 -8 -4 -12 -9 -9 -5 3 -6 10 -3 15 9 13 12 11 12 -6z m-474 -132
c4 -3 7 2 7 12 0 13 3 16 10 9 6 -6 6 -22 0 -44 -10 -36 -5 -53 10 -30 8 12
10 9 10 -11 0 -78 -47 -6 -54 83 -4 46 -3 53 3 25 4 -20 11 -40 14 -44z m59
-131 c-3 -31 10 -65 35 -90 7 -7 13 -21 13 -30 0 -12 -7 -9 -24 13 -13 16 -22
33 -19 37 2 5 0 8 -6 8 -13 0 -32 67 -24 86 10 26 28 8 25 -24z m69 -159 c13
-16 12 -17 -3 -4 -17 13 -22 21 -14 21 2 0 10 -8 17 -17z m406 -29 c-3 -3 -12
-4 -19 -1 -8 3 -5 6 6 6 11 1 17 -2 13 -5z m699 -3 c-12 -19 -377 -166 -397
-159 -5 2 3 17 18 34 24 27 45 35 143 59 63 15 142 38 175 51 71 27 68 26 61
15z m-1536 -75 c52 -13 122 -27 155 -31 50 -6 65 -13 87 -39 15 -17 27 -35 28
-40 0 -14 -114 2 -252 35 -106 26 -128 34 -128 49 0 16 9 50 14 50 1 0 44 -11
96 -24z m-1810 -221 c0 -11 23 -67 51 -124 43 -88 63 -115 138 -191 76 -75
103 -95 192 -139 129 -63 193 -80 339 -88 l115 -6 63 -44 c35 -23 69 -43 75
-43 7 0 3 -6 -8 -12 -32 -19 -285 -15 -380 6 -256 56 -473 218 -599 447 -34
62 -76 169 -76 193 0 6 14 36 32 66 l32 55 13 -50 c7 -27 13 -59 13 -70z
m1385 -214 c55 -33 117 -67 138 -77 20 -10 37 -23 37 -29 0 -23 -78 -142 -123
-189 l-49 -49 -66 6 c-79 6 -169 35 -267 84 -118 58 -117 38 -13 243 l91 179
76 -55 c42 -29 121 -80 176 -113z"/>
<path d="M3231 1683 c-12 -13 -20 -27 -16 -31 3 -3 10 0 14 7 5 7 13 11 19 7
12 -7 26 24 15 35 -4 3 -19 -4 -32 -18z"/>
<path d="M3680 1700 c0 -5 5 -10 10 -10 6 0 10 5 10 10 0 6 -4 10 -10 10 -5 0
-10 -4 -10 -10z"/>
<path d="M3405 1260 c3 -5 8 -10 11 -10 2 0 4 5 4 10 0 6 -5 10 -11 10 -5 0
-7 -4 -4 -10z"/>
<path d="M3328 1253 c7 -3 16 -2 19 1 4 3 -2 6 -13 5 -11 0 -14 -3 -6 -6z"/>
<path d="M3560 1239 c11 -8 8 -9 -13 -4 -19 4 -26 2 -22 -5 3 -5 20 -10 37
-10 26 0 29 2 18 15 -7 8 -18 15 -24 15 -6 0 -4 -5 4 -11z"/>
<path d="M980 5336 c0 -2 8 -10 18 -17 15 -13 16 -12 3 4 -13 16 -21 21 -21
13z"/>
<path d="M930 5283 c0 -6 8 -17 18 -24 16 -13 16 -13 2 6 -8 11 -16 22 -17 24
-2 2 -3 0 -3 -6z"/>
<path d="M5080 5115 c-7 -9 -11 -17 -9 -20 3 -2 10 5 17 15 14 24 10 26 -8 5z"/>
<path d="M1775 4900 c3 -5 8 -10 11 -10 2 0 4 5 4 10 0 6 -5 10 -11 10 -5 0
-7 -4 -4 -10z"/>
<path d="M2485 4196 c-27 -7 -69 -23 -93 -35 -49 -25 -172 -139 -247 -230 -70
-84 -83 -83 -36 3 42 76 55 113 22 63 -15 -24 -19 -26 -25 -12 -9 23 -8 27 5
20 6 -4 9 0 7 11 -2 11 2 18 9 17 8 -2 10 4 6 14 -5 13 -10 11 -29 -13 -13
-16 -29 -41 -35 -57 -7 -17 -17 -26 -25 -23 -8 3 -24 -10 -39 -32 -14 -20 -25
-31 -25 -25 0 7 5 15 10 18 6 3 10 14 10 23 0 15 -2 15 -11 2 -8 -11 -9 -9 -3
10 4 14 11 28 16 31 6 4 6 9 -1 13 -6 4 -11 4 -11 -1 0 -4 -9 -19 -19 -32
l-18 -23 4 33 4 34 -14 -30 c-8 -16 -12 -33 -10 -38 3 -4 0 -6 -5 -5 -21 6
-115 -118 -166 -219 -14 -28 -39 -86 -56 -128 -16 -41 -46 -107 -66 -146 -51
-103 -41 -114 28 -28 15 19 37 45 48 59 l21 25 -6 -30 -7 -30 27 25 c15 14 57
54 94 89 140 137 282 197 378 160 17 -6 29 -7 31 -1 2 6 26 -14 54 -44 29 -31
76 -67 111 -84 68 -34 110 -41 58 -9 -74 45 -111 115 -110 209 1 84 17 129 18
50 2 -99 64 -196 155 -239 60 -30 162 -28 239 3 112 46 41 -29 -92 -97 -75
-38 -102 -47 -144 -47 -81 0 -208 54 -191 81 3 5 9 7 13 5 22 -14 111 -45 107
-37 -4 5 -23 15 -43 22 -20 6 -58 24 -84 39 -74 44 -139 70 -174 70 -38 0
-108 -28 -162 -65 -40 -27 -40 -31 2 -15 14 5 24 7 22 2 -3 -4 32 -7 76 -7 76
0 87 -3 147 -37 36 -21 106 -58 155 -83 69 -35 82 -45 57 -42 -18 2 -35 0 -37
-4 -9 -14 152 -22 190 -9 20 7 39 9 42 6 3 -3 13 2 21 12 12 15 12 14 0 -8 -8
-14 -34 -40 -58 -58 -40 -31 -41 -33 -14 -26 80 19 151 51 210 94 27 20 93
107 110 145 7 17 13 23 13 15 1 -8 -15 -45 -34 -82 -18 -38 -32 -68 -29 -68 2
0 20 25 40 55 21 30 39 53 42 51 6 -6 43 41 61 77 20 37 35 34 27 -5 l-6 -33
20 24 c18 21 20 21 20 5 0 -11 4 -25 9 -33 7 -11 15 -2 32 37 22 50 48 74 35
32 -16 -53 -18 -65 -7 -50 9 13 11 12 11 -5 1 -11 23 25 50 80 50 101 57 120
42 111 -5 -3 -5 18 0 47 4 29 6 63 3 77 -4 19 -3 21 5 10 7 -11 10 0 10 40 0
36 -3 50 -9 41 -7 -11 -10 -9 -14 10 -2 15 -4 9 -4 -14 0 -20 -3 -40 -6 -44
-4 -3 -8 20 -8 53 -2 66 -16 140 -18 94 -1 -14 -6 -32 -11 -40 -8 -12 -10 -9
-10 13 0 15 -4 27 -10 27 -5 0 -10 -15 -10 -34 0 -42 -20 -60 -21 -19 0 15 -4
37 -9 48 -7 17 -9 16 -9 -10 -2 -52 -13 -105 -22 -100 -4 3 -13 -11 -18 -32
-6 -21 -15 -54 -21 -73 l-10 -35 3 40 c2 22 0 51 -4 65 -6 23 -7 22 -8 -10 -1
-33 -2 -33 -15 -14 -8 11 -17 37 -21 57 -4 20 -22 58 -41 84 -35 50 -44 52
-20 5 22 -44 29 -99 12 -105 -9 -4 -13 2 -13 20 0 13 -8 32 -17 41 -14 15 -15
13 -12 -23 2 -22 11 -62 20 -90 9 -27 15 -66 15 -85 -1 -30 -2 -28 -10 15 -4
28 -15 70 -23 94 -9 24 -13 47 -10 52 5 9 -37 109 -47 109 -3 0 -27 21 -55 46
-99 93 -210 122 -339 90z m234 -170 c45 -24 65 -91 38 -127 -50 -65 -165 -45
-181 31 -7 35 13 83 41 99 26 15 70 13 102 -3z m181 -16 c0 -5 -2 -10 -4 -10
-3 0 -8 5 -11 10 -3 6 -1 10 4 10 6 0 11 -4 11 -10z m367 -102 c-3 -7 -5 -2
-5 12 0 14 2 19 5 13 2 -7 2 -19 0 -25z m-270 -20 c-3 -7 -5 -2 -5 12 0 14 2
19 5 13 2 -7 2 -19 0 -25z m-26 -259 l-11 -34 5 34 c3 18 6 48 7 65 l1 31 4
-31 c2 -18 -1 -47 -6 -65z"/>
<path d="M4330 4200 c-24 -5 -58 -16 -76 -25 -18 -8 -35 -15 -39 -15 -14 0
-74 -53 -72 -63 1 -7 -4 -11 -10 -10 -7 2 -12 0 -10 -5 2 -9 -38 -62 -48 -62
-3 0 3 12 14 27 12 14 19 28 17 31 -7 6 -47 -33 -60 -59 -16 -32 -40 -38 -32
-8 6 20 5 21 -4 7 -13 -22 -30 -23 -30 -4 0 8 -5 18 -11 22 -8 4 -9 -4 -5 -27
l6 -34 -13 30 -14 30 -8 -58 c-4 -31 -11 -60 -16 -63 -5 -3 -9 -14 -9 -25 0
-11 -4 -17 -10 -14 -6 4 -11 -9 -11 -32 -1 -27 -5 -17 -13 37 -11 69 -12 72
-19 40 -11 -51 -26 -20 -28 55 -1 43 -3 53 -8 35 l-8 -25 -14 29 -13 28 -12
-33 c-12 -33 -12 -33 -13 -6 -1 42 -19 32 -25 -15 -12 -88 -13 -91 -15 -26 0
37 -5 69 -10 72 -5 3 -9 0 -8 -7 1 -39 -7 -47 -13 -12 -7 38 -7 36 -8 -20 -1
-54 4 -101 22 -215 l6 -35 -20 40 c-37 76 -20 15 28 -97 89 -207 143 -291 94
-147 -11 30 -22 68 -26 84 -6 26 -2 23 26 -20 18 -27 36 -52 40 -55 4 -3 12
-18 18 -34 8 -21 14 -26 21 -19 8 8 7 27 -5 64 -19 67 -9 80 24 31 30 -44 84
-102 97 -102 5 0 26 -18 48 -40 21 -22 41 -38 43 -35 3 2 18 -7 35 -21 16 -14
51 -36 76 -49 49 -24 162 -58 170 -50 2 3 -1 5 -8 5 -14 0 -101 79 -101 92 0
4 15 1 33 -9 38 -20 181 -24 212 -6 19 12 18 12 -10 13 -24 0 -10 10 75 53 58
30 125 64 150 78 36 19 60 24 115 24 39 0 83 -4 98 -8 l29 -8 -26 26 c-36 36
-130 68 -184 62 -47 -5 -178 -67 -162 -77 27 -17 -92 -81 -160 -88 -65 -6
-247 48 -234 69 3 5 -3 9 -12 9 -10 0 -14 3 -10 7 3 4 -8 22 -26 40 l-32 33
59 -21 c198 -69 373 44 397 256 3 22 6 15 12 -27 14 -96 -32 -201 -108 -250
-27 -17 -28 -19 -6 -13 28 8 90 43 105 60 26 29 97 77 135 90 90 32 188 10
283 -63 58 -44 69 -54 179 -161 43 -41 81 -72 84 -68 4 3 -1 13 -10 22 -9 9
-16 21 -16 27 0 12 37 -25 83 -82 25 -31 28 -32 21 -10 -3 14 -26 66 -49 115
-23 50 -45 100 -49 112 -12 39 -86 184 -110 217 -12 17 -23 41 -24 54 0 12
-23 51 -50 85 -27 34 -52 70 -55 80 -4 10 -11 15 -17 12 -6 -4 8 -32 33 -67
23 -33 50 -74 61 -92 l19 -31 -24 27 c-13 14 -35 40 -49 57 -14 17 -40 48 -58
69 l-32 37 15 -37 c20 -49 19 -55 -4 -34 -18 17 -19 17 -24 -1 -4 -17 -5 -17
-6 0 -1 11 -6 15 -13 11 -8 -5 -9 -2 -5 9 3 10 2 17 -3 17 -6 0 -10 -5 -10
-11 0 -8 -5 -7 -16 2 -10 8 -13 21 -9 36 l6 24 -22 -20 c-18 -17 -25 -18 -38
-8 -8 6 -1 -8 16 -33 34 -51 74 -133 67 -139 -3 -3 -66 58 -142 135 -111 114
-149 147 -202 172 -72 35 -149 46 -220 32z m23 -180 c57 -45 42 -127 -29 -156
-29 -12 -39 -12 -66 -1 -41 17 -56 35 -64 75 -5 27 -1 37 29 67 42 42 89 47
130 15z m537 -68 c0 -3 -14 8 -30 27 -17 18 -28 37 -24 42 5 9 54 -53 54 -69z
m-863 -44 c-3 -8 -6 -5 -6 6 -1 11 2 17 5 13 3 -3 4 -12 1 -19z m-17 -58 c-5
-22 -8 -27 -9 -13 -1 21 9 56 14 51 2 -2 0 -19 -5 -38z m-10 -242 c0 -9 16
-47 35 -83 19 -37 28 -62 21 -56 -20 16 -62 109 -70 151 -4 25 -3 31 4 20 5
-8 10 -23 10 -32z m100 -180 c0 -6 -6 -5 -15 2 -8 7 -15 14 -15 16 0 2 7 1 15
-2 8 -4 15 -11 15 -16z"/>
<path d="M4770 4076 c0 -2 8 -10 18 -17 15 -13 16 -12 3 4 -13 16 -21 21 -21
13z"/>
<path d="M3281 4014 c0 -11 3 -14 6 -6 3 7 2 16 -1 19 -3 4 -6 -2 -5 -13z"/>
<path d="M2030 3996 c-5 -13 -15 -26 -22 -29 -7 -2 -9 -8 -5 -13 5 -5 13 -1
19 10 8 14 12 15 18 6 6 -9 11 -6 21 11 12 23 11 23 -6 9 -17 -14 -18 -13 -13
8 8 29 0 28 -12 -2z"/>
<path d="M3061 3964 c0 -11 3 -14 6 -6 3 7 2 16 -1 19 -3 4 -6 -2 -5 -13z"/>
<path d="M4560 3530 c-9 -6 -10 -10 -3 -10 6 0 15 5 18 10 8 12 4 12 -15 0z"/>
<path d="M3057 3473 c-4 -3 -7 -11 -7 -17 0 -6 5 -5 12 2 6 6 9 14 7 17 -3 3
-9 2 -12 -2z"/>
<path d="M3950 3371 c0 -6 4 -13 10 -16 6 -3 7 1 4 9 -7 18 -14 21 -14 7z"/>
<path d="M2927 3270 c-19 -22 -22 -35 -7 -25 10 6 34 45 28 45 -2 0 -11 -9
-21 -20z"/>
<path d="M4046 3257 c3 -10 9 -15 12 -12 3 3 0 11 -7 18 -10 9 -11 8 -5 -6z"/>
<path d="M2873 3208 c-20 -26 -26 -41 -15 -34 12 7 36 46 29 46 -3 0 -9 -6
-14 -12z"/>
<path d="M5410 3170 c0 -5 5 -10 11 -10 5 0 7 5 4 10 -3 6 -8 10 -11 10 -2 0
-4 -4 -4 -10z"/>
<path d="M2015 3130 c-16 -11 -25 -20 -19 -20 11 0 64 39 54 40 -3 0 -18 -9
-35 -20z"/>
<path d="M4910 3106 c0 -2 7 -7 16 -10 8 -3 12 -2 9 4 -6 10 -25 14 -25 6z"/>
<path d="M5008 3090 c18 -21 15 -34 -5 -19 -16 12 -17 12 -6 -2 7 -9 10 -19 6
-23 -4 -3 14 -28 39 -54 105 -109 201 -291 249 -476 16 -60 29 -111 29 -114 0
-2 7 1 15 8 13 11 15 8 15 -13 0 -14 5 -29 10 -32 6 -4 10 7 10 27 1 28 2 30
11 15 7 -11 8 -38 5 -65 l-7 -47 17 33 c14 28 15 40 6 65 -6 18 -14 51 -18 75
-7 46 -20 55 -27 20 -3 -13 -5 2 -4 32 0 30 -6 75 -14 100 -22 74 -111 244
-170 323 -10 13 -38 -4 -42 -26 -4 -22 -4 -22 -6 1 0 12 -5 22 -11 22 -14 0
-12 34 3 49 10 10 9 11 -4 6 -9 -3 -23 3 -33 14 -10 11 -25 17 -34 14 -11 -5
-13 -3 -7 7 5 9 4 11 -3 6 -7 -4 -12 -1 -12 8 0 23 14 20 51 -11 27 -24 30
-24 18 -5 -8 12 -17 22 -21 22 -3 0 -13 6 -20 13 -7 6 -22 19 -33 27 -16 11
-17 11 -7 0z m82 -105 c0 -2 -6 -7 -12 -11 -7 -4 -10 -4 -6 1 4 4 0 14 -10 22
-15 13 -15 13 6 3 12 -6 22 -13 22 -15z m66 -74 c-15 -16 -15 -19 3 -35 16
-14 36 -56 26 -56 -1 0 -13 17 -27 38 -19 29 -22 42 -14 59 6 12 14 19 19 16
4 -3 1 -13 -7 -22z m57 -64 c12 -19 14 -26 5 -25 -14 3 -26 24 -27 47 -1 16
-1 16 22 -22z m36 -67 c11 -24 11 -24 -3 -6 -9 11 -16 24 -16 30 0 12 5 7 19
-24z m40 -90 c0 -8 -6 0 -14 19 -8 18 -15 36 -15 40 1 13 29 -45 29 -59z m19
-131 c-3 -8 -7 -3 -11 10 -4 17 -3 21 5 13 5 -5 8 -16 6 -23z m42 -119 c0 -5
-5 -10 -11 -10 -5 0 -7 5 -4 10 3 6 8 10 11 10 2 0 4 -4 4 -10z"/>
<path d="M5115 2960 c-3 -5 -2 -10 4 -10 5 0 13 5 16 10 3 6 2 10 -4 10 -5 0
-13 -4 -16 -10z"/>
<path d="M5351 2304 c0 -11 3 -14 6 -6 3 7 2 16 -1 19 -3 4 -6 -2 -5 -13z"/>
<path d="M5401 2284 c0 -11 3 -14 6 -6 3 7 2 16 -1 19 -3 4 -6 -2 -5 -13z"/>
</g>
</svg>
